<svg xmlns="http://www.w3.org/2000/svg" xmlns:xlink="http://www.w3.org/1999/xlink" viewBox="0 0 109.84 74.7"><defs><style>.cls-1,.cls-4{fill:none;}.cls-2{fill:url(#linear-gradient);}.cls-3{fill:#fff31b;}.cls-4{stroke:#ffb000;stroke-miterlimit:10;stroke-width:2px;}.cls-5{clip-path:url(#clip-path);}.cls-6{fill:#ffb000;}</style><linearGradient id="linear-gradient" x1="-1.4" y1="39.5" x2="78.51" y2="4.17" gradientUnits="userSpaceOnUse"><stop offset="0.08" stop-color="#ebf2e0" stop-opacity="0"/><stop offset="0.16" stop-color="#ebf0da" stop-opacity="0.03"/><stop offset="0.29" stop-color="#eaecca" stop-opacity="0.13"/><stop offset="0.46" stop-color="#eae5b0" stop-opacity="0.29"/><stop offset="0.64" stop-color="#e8db8c" stop-opacity="0.5"/><stop offset="0.85" stop-color="#e7cf5f" stop-opacity="0.77"/><stop offset="1" stop-color="#e6c539"/></linearGradient><clipPath id="clip-path"><circle class="cls-1" cx="74.25" cy="15.25" r="11.75"/></clipPath></defs><title>basketball</title><g id="Layer_2" data-name="Layer 2"><g id="Layer_1-2" data-name="Layer 1"><path class="cls-2" d="M11.33,50.08,0,46.4C13.83-.78,56.5-6,79.36,4.67L71,26.55C52.44,19.57,26.5,24.05,11.33,50.08Z"/><circle class="cls-3" cx="74.25" cy="15.25" r="11.75"/><line class="cls-4" x1="74.25" y1="3.5" x2="74.25" y2="27"/><g class="cls-5"><path class="cls-6" d="M89,6.51c4.12,0,7.48,3.92,7.48,8.74S93.14,24,89,24s-7.47-3.92-7.47-8.74S84.9,6.51,89,6.51m0-2c-5.23,0-9.47,4.81-9.47,10.74S83.79,26,89,26s9.48-4.81,9.48-10.74S94.25,4.51,89,4.51Z"/><path class="cls-6" d="M59.49,6.51c4.12,0,7.47,3.92,7.47,8.74S63.61,24,59.49,24,52,20.07,52,15.25s3.36-8.74,7.48-8.74m0-2C54.26,4.51,50,9.32,50,15.25S54.26,26,59.49,26,69,21.18,69,15.25,64.72,4.51,59.49,4.51Z"/></g><line class="cls-4" x1="62.51" y1="15.25" x2="86" y2="15.25"/><ellipse class="cls-4" cx="90.53" cy="41.38" rx="18.3" ry="4.66"/><path class="cls-6" d="M90.53,54.6c5.24,0,8.87.83,10.47,1.52-1.6.69-5.23,1.52-10.47,1.52s-8.87-.83-10.47-1.52c1.6-.69,5.23-1.52,10.47-1.52m0-2c-7.27,0-13.17,1.58-13.17,3.52s5.9,3.52,13.17,3.52,13.17-1.57,13.17-3.52S97.8,52.6,90.53,52.6Z"/><path class="cls-4" d="M108.84,41.38c-4.41,13.81-9.59,24.52-9.59,33.32"/><path class="cls-4" d="M100.93,37.54c-4.4,13.81-8,25.48-8,34.29"/><path class="cls-4" d="M80.13,37.54c4.41,13.81,8,25.48,8,34.29"/><path class="cls-4" d="M72.23,41.38c4.4,13.81,9.58,24.52,9.58,33.32"/></g></g></svg>