<svg xmlns="http://www.w3.org/2000/svg" viewBox="0 0 358.805 152.695">
  <defs>
    <style>
      .cls-1 {
        fill: none;
        stroke: #fff31b;
        stroke-miterlimit: 10;
        stroke-width: 2px;
      }
    </style>
  </defs>
  <g id="Group_290" data-name="Group 290" transform="translate(-207.126 -2248.067)">
    <g id="Group_280" data-name="Group 280" transform="translate(397.546 2249.7)">
      <path id="Path_102" data-name="Path 102" class="cls-1" d="M67.842,75.756H42.4V22.969A7.313,7.313,0,0,1,49.669,15.7h10.9a7.313,7.313,0,0,1,7.269,7.269Z" transform="translate(28.214 8.703)"/>
      <rect id="Rectangle_61" data-name="Rectangle 61" class="cls-1" width="25.442" height="23.019" transform="translate(70.614 126.689)"/>
      <path id="Path_103" data-name="Path 103" class="cls-1" d="M67.018,92.63H54.211A19.279,19.279,0,0,1,35,73.419V58.361A8.053,8.053,0,0,1,42.961,50.4H78.1a8.053,8.053,0,0,1,7.961,7.961V73.419A19.131,19.131,0,0,1,67.018,92.63Z" transform="translate(22.806 34.06)"/>
      <path id="Path_104" data-name="Path 104" class="cls-1" d="M57,19.9h70.96l-2.942,6.577c-2.25,5.019-6.231,8.134-10.73,8.134H57" transform="translate(38.882 11.772)"/>
      <path id="Path_105" data-name="Path 105" class="cls-1" d="M57,28.4h58.5l-2.423,6.577c-1.9,5.019-5.192,8.134-8.827,8.134H57" transform="translate(38.882 17.984)"/>
      <path id="Path_106" data-name="Path 106" class="cls-1" d="M57,36.9H92.134l-1.385,6.577c-1.038,5.019-3.115,8.134-5.365,8.134H57" transform="translate(38.882 24.195)"/>
      <path id="Path_107" data-name="Path 107" class="cls-1" d="M72.56,19.9H1.6l2.942,6.577c2.25,5.019,6.231,8.134,10.731,8.134h57.46" transform="translate(-1.6 11.772)"/>
      <path id="Path_108" data-name="Path 108" class="cls-1" d="M67.3,28.4H8.8l2.423,6.577c1.9,5.019,5.192,8.134,8.827,8.134H67.3" transform="translate(3.661 17.984)"/>
      <path id="Path_109" data-name="Path 109" class="cls-1" d="M57.507,36.9H22.2l1.385,6.577c1.038,5.019,3.115,8.134,5.365,8.134H57.334" transform="translate(13.453 24.195)"/>
      <path id="Path_110" data-name="Path 110" class="cls-1" d="M42.2,69.383c0-6.577,26.134-6.577,26.134,0" transform="translate(28.068 44.326)"/>
      <line id="Line_75" data-name="Line 75" class="cls-1" x1="12.288" y2="5.019" transform="translate(86.536 95.19)"/>
      <line id="Line_76" data-name="Line 76" class="cls-1" x2="12.288" y2="5.019" transform="translate(67.845 95.19)"/>
      <path id="Path_111" data-name="Path 111" class="cls-1" d="M53.123,26c-11.423-3.115-9.519-12.115,0-24.4,9.519,12.288,11.423,21.288,0,24.4" transform="translate(30.299 -1.6)"/>
    </g>
    <g id="Group_282" data-name="Group 282" transform="translate(208.149 2278.292)">
      <ellipse id="Ellipse_65" data-name="Ellipse 65" class="cls-1" cx="14.418" cy="14.418" rx="14.418" ry="14.418" transform="translate(101.625 0)"/>
      <path id="Path_112" data-name="Path 112" class="cls-1" d="M78.075,33.525l-7.091-6.973a1.714,1.714,0,0,0-2.482,0L54.793,40.379A7.242,7.242,0,0,1,44.63,40.5h0a7.242,7.242,0,0,1-.118-10.164L64.247,10.243a7.6,7.6,0,0,1,10.636-.118L93.793,28.8" transform="translate(6.533 0.275)"/>
      <path id="Path_113" data-name="Path 113" class="cls-1" d="M148.133,32.936a7.133,7.133,0,0,1,0,10.164L133.124,57.99l-.473.473-2.009,2.009a10.985,10.985,0,0,1-15.482,0l-15.6-15.718L85.379,59.881l15.6,12.527,8.036,6.736a7.728,7.728,0,0,1,.945,10.991l-6.382,7.682-.118.118L88.806,115.544a9.164,9.164,0,0,1-12.882,1.182h0a9.163,9.163,0,0,1-1.182-12.882L87.388,88.6a2.648,2.648,0,0,0-.355-3.782L71.67,72.408l-26,17.136a5.763,5.763,0,0,1-.827.355L11.871,99.472A8.508,8.508,0,0,1,1.353,93.681h0A8.618,8.618,0,0,1,7.026,83.045l27.891-8.509c.236-.118.473-.118.709-.236L57.607,61.063h0L95.306,21l14.182,13.354,10.991,10.991a3.645,3.645,0,0,0,4.964,0l12.527-12.527a7.242,7.242,0,0,1,10.164.118Z" transform="translate(-1.008 2.636)"/>
    </g>
    <g id="Group_283" data-name="Group 283" transform="translate(397.546 2249.7)">
      <path id="Path_102-2" data-name="Path 102" class="cls-1" d="M67.842,75.756H42.4V22.969A7.313,7.313,0,0,1,49.669,15.7h10.9a7.313,7.313,0,0,1,7.269,7.269Z" transform="translate(28.214 8.703)"/>
      <rect id="Rectangle_61-2" data-name="Rectangle 61" class="cls-1" width="25.442" height="23.019" transform="translate(70.614 126.689)"/>
      <path id="Path_103-2" data-name="Path 103" class="cls-1" d="M67.018,92.63H54.211A19.279,19.279,0,0,1,35,73.419V58.361A8.053,8.053,0,0,1,42.961,50.4H78.1a8.053,8.053,0,0,1,7.961,7.961V73.419A19.131,19.131,0,0,1,67.018,92.63Z" transform="translate(22.806 34.06)"/>
      <path id="Path_104-2" data-name="Path 104" class="cls-1" d="M57,19.9h70.96l-2.942,6.577c-2.25,5.019-6.231,8.134-10.73,8.134H57" transform="translate(38.882 11.772)"/>
      <path id="Path_105-2" data-name="Path 105" class="cls-1" d="M57,28.4h58.5l-2.423,6.577c-1.9,5.019-5.192,8.134-8.827,8.134H57" transform="translate(38.882 17.984)"/>
      <path id="Path_106-2" data-name="Path 106" class="cls-1" d="M57,36.9H92.134l-1.385,6.577c-1.038,5.019-3.115,8.134-5.365,8.134H57" transform="translate(38.882 24.195)"/>
      <path id="Path_107-2" data-name="Path 107" class="cls-1" d="M72.56,19.9H1.6l2.942,6.577c2.25,5.019,6.231,8.134,10.731,8.134h57.46" transform="translate(-1.6 11.772)"/>
      <path id="Path_108-2" data-name="Path 108" class="cls-1" d="M67.3,28.4H8.8l2.423,6.577c1.9,5.019,5.192,8.134,8.827,8.134H67.3" transform="translate(3.661 17.984)"/>
      <path id="Path_109-2" data-name="Path 109" class="cls-1" d="M57.507,36.9H22.2l1.385,6.577c1.038,5.019,3.115,8.134,5.365,8.134H57.334" transform="translate(13.453 24.195)"/>
      <path id="Path_110-2" data-name="Path 110" class="cls-1" d="M42.2,69.383c0-6.577,26.134-6.577,26.134,0" transform="translate(28.068 44.326)"/>
      <line id="Line_75-2" data-name="Line 75" class="cls-1" x1="12.288" y2="5.019" transform="translate(86.536 95.19)"/>
      <line id="Line_76-2" data-name="Line 76" class="cls-1" x2="12.288" y2="5.019" transform="translate(67.845 95.19)"/>
      <path id="Path_111-2" data-name="Path 111" class="cls-1" d="M53.123,26c-11.423-3.115-9.519-12.115,0-24.4,9.519,12.288,11.423,21.288,0,24.4" transform="translate(30.299 -1.6)"/>
    </g>
  </g>
</svg>
