<svg xmlns="http://www.w3.org/2000/svg" viewBox="0 0 140 110">
  <defs>
    <style>
      .cls-1 {
        fill: #3bc0c7;
      }

      .cls-2 {
        fill: none;
        stroke: #fff31b;
        stroke-miterlimit: 10;
        stroke-width: 2px;
      }
    </style>
  </defs>
  <g id="Group_297" data-name="Group 297" transform="translate(-1292 -955)">
    <circle id="Ellipse_17" data-name="Ellipse 17" class="cls-1" cx="50" cy="50" r="50" transform="translate(1316 965)"/>
    <circle id="Ellipse_18" data-name="Ellipse 18" class="cls-1" cx="14" cy="14" r="14" transform="translate(1312 965)"/>
    <circle id="Ellipse_19" data-name="Ellipse 19" class="cls-1" cx="5" cy="5" r="5" transform="translate(1392 955)"/>
    <circle id="Ellipse_20" data-name="Ellipse 20" class="cls-1" cx="9" cy="9" r="9" transform="translate(1292 997)"/>
    <circle id="Ellipse_21" data-name="Ellipse 21" class="cls-1" cx="23" cy="23" r="23" transform="translate(1292 1019)"/>
    <circle id="Ellipse_22" data-name="Ellipse 22" class="cls-1" cx="7" cy="7" r="7" transform="translate(1412 999)"/>
    <circle id="Ellipse_23" data-name="Ellipse 23" class="cls-1" cx="16" cy="16" r="16" transform="translate(1400 1020)"/>
    <g id="Group_15" data-name="Group 15" transform="translate(1303.8 981.719)">
      <path id="Path_11" data-name="Path 11" class="cls-2" d="M61.46,6.048V70.715c0,2.765-13.582,5.048-30.29,5.048S1,73.6,1,70.835V6.048C1,3.284,14.582,1,31.29,1S61.46,3.284,61.46,6.048Z" transform="translate(0)"/>
      <ellipse id="Ellipse_5" data-name="Ellipse 5" class="cls-2" cx="30.29" cy="5.048" rx="30.29" ry="5.048" transform="translate(1 1)"/>
      <path id="Path_12" data-name="Path 12" class="cls-2" d="M1.721,26.44A1.454,1.454,0,0,0,1,27.522c0,2.765,13.582,5.048,30.29,5.048s30.29-2.284,30.29-5.048c0-.481-.361-.962-1.082-1.322" transform="translate(0 5.09)"/>
      <path id="Path_13" data-name="Path 13" class="cls-2" d="M1.721,19.02A1.463,1.463,0,0,0,1,20.222c0,2.765,13.582,5.048,30.29,5.048s30.29-2.284,30.29-5.048c0-.481-.361-.962-1.082-1.322" transform="translate(0 3.615)"/>
      <path id="Path_14" data-name="Path 14" class="cls-2" d="M1.721,33.84A1.454,1.454,0,0,0,1,34.922c0,2.765,13.582,5.048,30.29,5.048s30.29-2.284,30.29-5.048c0-.481-.361-.962-1.082-1.322" transform="translate(0 6.585)"/>
      <path id="Path_15" data-name="Path 15" class="cls-2" d="M1.721,41.12A1.463,1.463,0,0,0,1,42.322c0,2.765,13.582,5.048,30.29,5.048s30.29-2.284,30.29-5.048c0-.481-.361-.962-1.082-1.322" transform="translate(0 8.079)"/>
      <path id="Path_16" data-name="Path 16" class="cls-2" d="M107.606,4.366v42.55c0,1.8-8.895,3.366-19.953,3.366S67.7,48.839,67.7,46.916V4.366C67.7,2.563,76.595,1,87.653,1S107.606,2.563,107.606,4.366Z" transform="translate(14.674 2.404)"/>
      <ellipse id="Ellipse_6" data-name="Ellipse 6" class="cls-2" cx="19.953" cy="3.366" rx="19.953" ry="3.366" transform="translate(82.374 3.404)"/>
      <path id="Path_17" data-name="Path 17" class="cls-2" d="M68.281,17.72a.869.869,0,0,0-.481.721c0,1.8,8.895,3.366,19.953,3.366s19.953-1.442,19.953-3.366c0-.361-.24-.6-.721-.841" transform="translate(14.694 5.757)"/>
      <path id="Path_18" data-name="Path 18" class="cls-2" d="M68.281,27.42a.869.869,0,0,0-.481.721c0,1.8,8.895,3.366,19.953,3.366s19.953-1.442,19.953-3.366c0-.361-.24-.6-.721-.841" transform="translate(14.694 4.11)"/>
    </g>
  </g>
</svg>
