<svg xmlns="http://www.w3.org/2000/svg" viewBox="0 0 96.58 38.78"><defs><style>.cls-1{fill:none;stroke:#fff31b;stroke-linecap:round;stroke-linejoin:round;stroke-width:2px;}</style></defs><title>icon_safety</title><g id="Layer_2" data-name="Layer 2"><g id="Layer_1-2" data-name="Layer 1"><path class="cls-1" d="M13.77,17.14c-.34-6.29,6.89-9.91,11.59-10.06a11.48,11.48,0,0,0-3.54,5.39c4.54-3.47,6-4,11.38-3.77,2.81.1,7.5-.34,10-1.62-4.3,10-8.61,14.85-10.31,15.39,5.54-1.39,9.77-10.77,12.77-11.85S56.59,7.91,63.05,4.93c-1,9.47-5.62,15.53-6.16,15.91C65.07,13,68.19,8.61,69.58,8.15c2.66-.88,5.75.09,26-7.15C80.39,22.8,49,31.58,22.59,21.77,8.64,16.6,1,4.13,1,4.13"/><path class="cls-1" d="M95.58,1c-8.36,25.67-22,30.16-24.84,30.16s-7.23-6.31-7.15-8"/><path class="cls-1" d="M70.74,31.16c-8.39,4.76-24.27,4-25.54,3a33.83,33.83,0,0,1-7.48-8.77"/><path class="cls-1" d="M10.06,14.29c-1.8,6.76,1.91,15,6.56,19.33a63.77,63.77,0,0,1-1-9.73c4,11.39,6.28,13.89,18,13.89a21.19,21.19,0,0,0,7.53-1.33,46.74,46.74,0,0,1-8.65-11.9"/></g></g></svg>