<svg xmlns="http://www.w3.org/2000/svg" viewBox="0 0 93.46 99.36"><defs><style>.cls-1{fill:none;stroke:#fff31b;stroke-miterlimit:10;stroke-width:2px;}.cls-2{fill:#3bc0c7;}</style></defs><title>icon_statistics</title><g id="Layer_2" data-name="Layer 2"><g id="Layer_1-2" data-name="Layer 1"><circle class="cls-1" cx="36.05" cy="13.15" r="12.15"/><path class="cls-1" d="M71.1,53.16A5.7,5.7,0,0,1,62,57.77L50.18,49.12l-.1,13.81,2,29.33c0,.13,0,.26,0,.38A5.71,5.71,0,0,1,40.65,93l-1.39-20.8H32.85L31.45,93A5.71,5.71,0,0,1,20,92.64c0-.12,0-.25,0-.38l2-29.33-.1-13.81L10.07,57.77a5.71,5.71,0,0,1-6.73-9.23L27.09,31.21a5.62,5.62,0,0,1,3.17-1.09H41.85A5.61,5.61,0,0,1,45,31.21L68.76,48.54A5.7,5.7,0,0,1,71.1,53.16Z"/><rect class="cls-2" x="56.91" y="43.16" width="9.13" height="56.03"/><rect class="cls-2" x="70.87" y="26.14" width="9.13" height="73.05"/><rect class="cls-2" x="84.33" y="73.99" width="9.13" height="25.2"/></g></g></svg>