<svg xmlns="http://www.w3.org/2000/svg" viewBox="0 0 86.59 101.6"><defs><style>.cls-1{fill:none;stroke:#fff31b;stroke-linecap:round;stroke-linejoin:round;stroke-width:2px;}</style></defs><title>icon_1_quest</title><g id="Layer_2" data-name="Layer 2"><g id="Layer_1-2" data-name="Layer 1"><path class="cls-1" d="M70.27,78.41l5.62,9.12C66.24,91,65.05,81.76,70,77.58c5.09-4.33,15.27-2.21,15.61,5.81.65,15.27-18.27,24-27.75,10.6C40.05,68.83,35.71,57.52,2.51,29.26c-1.82-1.55-2-5.52-.52-10,.28-.85,9.52,5.7,9.92,4.83.28-.63-8.3-8.69-8-9.31A27.83,27.83,0,0,1,10.12,7.1c.55-.48,5.12,4.59,5.72,4.16S13.05,4.89,13.7,4.5a24.94,24.94,0,0,1,13-3.5s-.91,14.36,19.15,36.92,35,25.41,38.74,29.63C68.37,62,50.08,74.27,57.83,94"/><path class="cls-1" d="M27.56,7.25a46.44,46.44,0,0,1,9-3.21c1.34-.34,4.4,8.08,5.76,7.82,1.62-.3,1.54-9.28,3.1-9.46,5-.57,9.53-.45,12,.58-1.29,8.81-2.06,35.55,8.92,53.44"/><path class="cls-1" d="M82.88,77.66A51.31,51.31,0,0,1,72.63,66.53"/></g></g></svg>