<svg xmlns="http://www.w3.org/2000/svg" viewBox="0 0 108 63.98"><defs><style>.cls-1{fill:none;stroke:#fff31b;stroke-miterlimit:10;stroke-width:2px;}.cls-2{fill:#fff;}</style></defs><title>icon_sale</title><g id="Layer_2" data-name="Layer 2"><g id="Layer_1-2" data-name="Layer 1"><polygon class="cls-1" points="107 1.24 1 24.07 1 62.74 107 39.91 107 1.24"/><path class="cls-2" d="M35.61,41.12a5.91,5.91,0,0,1-.53,2.38,7,7,0,0,1-1.48,2.22,10.2,10.2,0,0,1-2.43,1.83,12.2,12.2,0,0,1-3.34,1.18,17.26,17.26,0,0,1-3.78.4,16.89,16.89,0,0,1-3.41-.45V45.45l.18,0a8.47,8.47,0,0,0,3.41,1.17,10.63,10.63,0,0,0,3.62-.1,8.07,8.07,0,0,0,3.74-1.7,3.58,3.58,0,0,0,1.34-2.72,2.09,2.09,0,0,0-.64-1.78,3.35,3.35,0,0,0-1.92-.55,19.09,19.09,0,0,0-2.12,0c-.76.05-1.57.08-2.42.1a5.86,5.86,0,0,1-3.83-1,3.93,3.93,0,0,1-1.25-3.18,6.16,6.16,0,0,1,2.07-4.47,10.6,10.6,0,0,1,5.23-2.75A16.44,16.44,0,0,1,31.8,28a14.43,14.43,0,0,1,3,.29v3.09l-.18,0a6.89,6.89,0,0,0-2.92-.92,10.59,10.59,0,0,0-3.7.21,7.13,7.13,0,0,0-3.33,1.62,3.35,3.35,0,0,0-1.26,2.5,2.24,2.24,0,0,0,.63,1.77,3.46,3.46,0,0,0,2.2.58c.56,0,1.35,0,2.38-.08s1.89-.06,2.61,0a5.35,5.35,0,0,1,3.26,1A3.84,3.84,0,0,1,35.61,41.12Z"/><path class="cls-2" d="M54.82,42.69l-2.76.58-1.9-5.15-8.4,1.81-1.91,5.91-2.62.55L44.3,25.07l3.45-.78ZM49.36,36,46,27,42.54,37.5Z"/><path class="cls-2" d="M70.05,39.49,57.76,42.07V22l2.59-.59V39.15l9.7-2.06Z"/><path class="cls-2" d="M85.43,36.25,72.64,38.94V18.62l12.79-2.91v2.43l-10.21,2.3V26l10.21-2.25v2.42L75.22,28.43V36l10.21-2.17Z"/></g></g></svg>