<svg xmlns="http://www.w3.org/2000/svg" viewBox="0 0 214.16 131"><defs><style>.cls-1,.cls-2{fill:none;stroke-miterlimit:10;stroke-width:2px;}.cls-1{stroke:#fff31b;}.cls-2{stroke:#3bc0c7;}</style></defs><title>icon_totem_change</title><g id="Layer_2" data-name="Layer 2"><g id="Layer_1-2" data-name="Layer 1"><path class="cls-1" d="M161.21,33.79h6.33A4.17,4.17,0,0,1,171.71,38V68.5a0,0,0,0,1,0,0H157a0,0,0,0,1,0,0V38A4.17,4.17,0,0,1,161.21,33.79Z"/><rect class="cls-1" x="157.05" y="92.83" width="14.67" height="13.3"/><path class="cls-1" d="M154.23,68.5h20.29a4.6,4.6,0,0,1,4.6,4.6v8.66a11.06,11.06,0,0,1-11.06,11.06h-7.38a11.06,11.06,0,0,1-11.06-11.06V73.1A4.6,4.6,0,0,1,154.23,68.5Z"/><path class="cls-1" d="M171.59,38h41L211,41.77c-1.27,2.91-3.64,4.71-6.21,4.71H171.59"/><path class="cls-1" d="M171.59,46.48h33.77L204,50.27c-1.05,2.91-3,4.71-5.11,4.71H171.59"/><path class="cls-1" d="M171.59,55h20.34l-.82,3.79c-.64,2.91-1.81,4.71-3.08,4.71H171.59"/><path class="cls-1" d="M157.17,38h-41l1.67,3.79c1.27,2.91,3.64,4.71,6.21,4.71h33.16"/><path class="cls-1" d="M157.17,46.48H123.4l1.37,3.79c1,2.91,3,4.71,5.11,4.71h27.29"/><path class="cls-1" d="M157.17,55H136.83l.83,3.79c.63,2.91,1.8,4.71,3.07,4.71h16.44"/><path class="cls-1" d="M156.84,85.36c0-3.77,15.08-3.77,15.08,0"/><line class="cls-1" x1="173.34" y1="74.71" x2="166.25" y2="77.53"/><line class="cls-1" x1="155.43" y1="74.71" x2="162.51" y2="77.53"/><path class="cls-1" d="M164.38,33.79c-6.58-1.83-5.5-7,0-14.08,5.5,7.08,6.58,12.25,0,14.08"/><path class="cls-2" d="M39.65,33.79H46A4.17,4.17,0,0,1,50.15,38v19a0,0,0,0,1,0,0H35.48a0,0,0,0,1,0,0V38A4.17,4.17,0,0,1,39.65,33.79Z"/><rect class="cls-2" x="35.48" y="92.83" width="14.67" height="13.3"/><path class="cls-2" d="M32.67,64.88H53a4.6,4.6,0,0,1,4.6,4.6V81.77A11.06,11.06,0,0,1,46.5,92.83H39.13A11.06,11.06,0,0,1,28.07,81.77V69.48a4.6,4.6,0,0,1,4.6-4.6Z"/><path class="cls-2" d="M84.63,38V58.92l-3.8-1.67c-2.91-1.27-4.7-3.64-4.7-6.21V46.48H50.36V38Z"/><path class="cls-2" d="M1,38V58.92l3.8-1.67C7.71,56,9.5,53.61,9.5,51V46.48H35.27V38Z"/><path class="cls-2" d="M35.27,83.49c0-3.77,15.09-3.77,15.09,0"/><path class="cls-2" d="M35.27,83.49c0,3.77,15.09,3.77,15.09,0"/><path class="cls-2" d="M42.82,33.79c-4.42-1.23-5.39-4-3.89-7.76a4.21,4.21,0,0,1,7.77,0c1.5,3.8.53,6.53-3.88,7.76"/><line class="cls-2" x1="45.91" y1="75.44" x2="53.78" y2="75.44"/><line class="cls-2" x1="31.85" y1="75.44" x2="39.72" y2="75.44"/><path class="cls-2" d="M42.82,56.92H57.38a6.16,6.16,0,0,1,6.17,6.16v13a6,6,0,0,1-6,6h0"/><path class="cls-2" d="M42.82,56.92H28.25a6.16,6.16,0,0,0-6.17,6.16v13a6,6,0,0,0,6,6h0"/><path class="cls-1" d="M66.86,106c7.54,15.56,19.88,22.69,35.51,23.86,16.64,1.24,32.76-8,41.81-23.86"/><polyline class="cls-1" points="63.48 114.35 66.77 105.57 75.25 108.75"/><path class="cls-2" d="M138.4,25C130.86,9.41,118.52,2.28,102.89,1.11,86.25-.13,70.13,9.13,61.08,25"/><polyline class="cls-2" points="141.78 16.65 138.49 25.43 130.01 22.25"/></g></g></svg>