<svg xmlns="http://www.w3.org/2000/svg" viewBox="0 0 119.09 128.23"><defs><style>.cls-1{fill:#fff31b;}.cls-2,.cls-3{fill:none;stroke:#fff31b;stroke-miterlimit:10;stroke-width:2px;}.cls-2{stroke-linecap:round;}</style></defs><title>icon_stormtrooper</title><g id="Layer_2" data-name="Layer 2"><g id="Layer_1-2" data-name="Layer 1"><circle class="cls-1" cx="77.32" cy="112.43" r="7.36"/><path class="cls-1" d="M66.68,45.43H91.09c1.92,0,3.17.09,1.84,4S89.18,61.1,85.26,61.1,73.05,53.82,66.68,48.93C64.75,47.46,62.68,45.43,66.68,45.43Z"/><circle class="cls-1" cx="41.77" cy="112.43" r="7.36"/><path class="cls-2" d="M59.54,122.65c8.95,0,10.53,4.58,17.78,4.58,6.79,0,13.19-4.77,17.86-8,6.33-4.34,10.62-8.34,10.62-17.54,0-6-.62-10.25-6.81-10.25s-14.31.06-14.31-5.13c0,0,17.13-6.3,16.75-11.25C101,69.73,100,57.47,99.18,47.56c-.17-2,4.2-.92,9.07,0"/><path class="cls-2" d="M59.54,122.65c-8.94,0-10.52,4.58-17.77,4.58-6.79,0-13.19-4.77-17.86-8-6.33-4.34-10.62-8.34-10.62-17.54,0-6,.62-10.25,6.81-10.25s14.31.06,14.31-5.13c0,0-17.13-6.3-16.75-11.25.42-5.37,1.41-17.63,2.25-27.54.17-2-4.2-.92-9.07,0"/><path class="cls-3" d="M13.29,101.73C3.79,93,1,90.36,1,85.25S.42,79,5.93,73.47c6.09-6.09,4.91-10.41,4.91-33S31.26,1,59.54,1s48.71,16.89,48.71,39.48-1.18,26.9,4.91,33c5.51,5.51,4.91,6.68,4.91,11.78S115.3,93,105.8,101.73"/><path class="cls-1" d="M52.41,45.43H28c-1.92,0-3.17.09-1.84,4S29.91,61.1,33.83,61.1,46,53.82,52.41,48.93C54.34,47.46,56.41,45.43,52.41,45.43Z"/><path class="cls-1" d="M59.54,75.85c-9.65,0-13.69,10-24.75,10.76a.27.27,0,0,1-.14-.52c6.84-3.58,15.6-16.66,24.89-16.66S77.6,82.51,84.44,86.09a.27.27,0,0,1-.14.52C73.24,85.84,69.2,75.85,59.54,75.85Z"/><path class="cls-3" d="M10.84,37.77h97.41"/></g></g></svg>