<svg xmlns="http://www.w3.org/2000/svg" xmlns:xlink="http://www.w3.org/1999/xlink" viewBox="0 0 283.77 136.66"><defs><style>.cls-1{fill:url(#linear-gradient);}.cls-2,.cls-5{fill:none;stroke-miterlimit:10;stroke-width:2px;}.cls-2{stroke:#3bc0c7;}.cls-3{fill:url(#linear-gradient-2);}.cls-4{fill:url(#linear-gradient-3);}.cls-5{stroke:#fff31b;}.cls-6{fill:url(#linear-gradient-4);}</style><linearGradient id="linear-gradient" x1="196.85" y1="16.93" x2="52.34" y2="16.93" gradientUnits="userSpaceOnUse"><stop offset="0" stop-color="#3bc0c7"/><stop offset="0.06" stop-color="#3bc0c7" stop-opacity="0.91"/><stop offset="0.24" stop-color="#3bc0c7" stop-opacity="0.63"/><stop offset="0.41" stop-color="#3bc0c7" stop-opacity="0.41"/><stop offset="0.58" stop-color="#3bc0c7" stop-opacity="0.23"/><stop offset="0.74" stop-color="#3bc0c7" stop-opacity="0.1"/><stop offset="0.88" stop-color="#3bc0c7" stop-opacity="0.03"/><stop offset="1" stop-color="#3bc0c7" stop-opacity="0"/></linearGradient><linearGradient id="linear-gradient-2" x1="156.1" y1="62.33" x2="20.1" y2="62.33" xlink:href="#linear-gradient"/><linearGradient id="linear-gradient-3" x1="214.91" y1="62.33" x2="61.25" y2="62.33" gradientUnits="userSpaceOnUse"><stop offset="0" stop-color="#e6c539"/><stop offset="0.14" stop-color="#e7cf5f" stop-opacity="0.77"/><stop offset="0.32" stop-color="#e8db8c" stop-opacity="0.5"/><stop offset="0.48" stop-color="#eae5b0" stop-opacity="0.29"/><stop offset="0.62" stop-color="#eaecca" stop-opacity="0.13"/><stop offset="0.74" stop-color="#ebf0da" stop-opacity="0.03"/><stop offset="0.82" stop-color="#ebf2e0" stop-opacity="0"/></linearGradient><linearGradient id="linear-gradient-4" x1="249.52" y1="16.93" x2="105.01" y2="16.93" xlink:href="#linear-gradient-3"/></defs><title>icon_min_time</title><g id="Layer_2" data-name="Layer 2"><g id="Layer_1-2" data-name="Layer 1"><path class="cls-1" d="M44.6,32.85H193.28S177.39,32,177.39,15.93C177.39,2.59,193.28,1,193.28,1H44.6Z"/><path class="cls-2" d="M208.84,13.87a15.93,15.93,0,1,0-27.59,13.57"/><path class="cls-2" d="M158.37,38.45l-7.9-7.74a2,2,0,0,0-2.78,0L132.62,46a8,8,0,0,1-11.28.1h0a8,8,0,0,1-.1-11.32L143,12.7a8.33,8.33,0,0,1,11.78-.12l20.9,20.77"/><line class="cls-2" x1="187.13" y1="44.24" x2="197.07" y2="54.17"/><path class="cls-3" d="M0,114.46H72.72S59.19,111,67.32,98.1c2.88-4.54,20.31-5.76,29.73-10.35.12,1.09,19.45-9.19,30.37-16.73C128.57,69.6,157,39.85,158.1,38.45c-2-2.86-8-7.84-9.42-8.05-2.27-.35-12.4,13.13-20,17.75-9.29,1.62-11.51-9.33-8.19-12.79,7.29-7.58,15.31-16.64,21-21.38,4.18-3.48,7.2-3.78,7.2-3.78H0Z"/><path class="cls-2" d="M118.66,100.17l-4.55,3a3.59,3.59,0,0,1-.91.42L76.65,114.14A9.45,9.45,0,0,1,65,107.76h0A9.47,9.47,0,0,1,71.25,96l30.92-9.44a3.59,3.59,0,0,0,.72-.32l24.32-14.71h0L169.07,27.1l6.5,6.12"/><polyline class="cls-2" points="148.36 88.56 142.95 84.22 125.87 95.43"/><polyline class="cls-2" points="185.72 65.41 173.89 53.58 158.1 70.34 168.33 78.56"/><path class="cls-4" d="M53,114.46h72.72s-13.53-3.5-5.4-16.36c2.88-4.54,20.3-5.76,29.73-10.35.11,1.09,19.45-9.19,30.36-16.73,1.16-1.42,29.58-31.17,30.69-32.57-2-2.86-8-7.84-9.42-8.05-2.28-.35-12.4,13.13-20,17.75-9.3,1.62-11.51-9.33-8.19-12.79,7.29-7.58,15.31-16.64,21-21.38,4.18-3.48,7.2-3.78,7.2-3.78H53Z"/><path class="cls-5" d="M211.12,38.45l-7.9-7.74a2,2,0,0,0-2.79,0L185.36,46a8,8,0,0,1-11.28.1h0A8,8,0,0,1,174,34.82L195.76,12.7a8.33,8.33,0,0,1,11.78-.12l20.9,20.77"/><path class="cls-6" d="M97.27,32.85H246S230.06,32,230.06,15.93C230.06,2.59,246,1,246,1H97.27Z"/><circle class="cls-5" cx="245.95" cy="16.93" r="15.93"/><path class="cls-5" d="M280.43,40.38a8,8,0,0,1,0,11.31L263.82,68.18l-.49.48-2.2,2.2a12.17,12.17,0,0,1-17.22,0L226.63,53.58,210.84,70.34,228.09,84.2,237,91.66a8.66,8.66,0,0,1,1.11,12.19L231,112.42l-.1.11L214.69,132a10.15,10.15,0,0,1-14.3,1.3h0a10.15,10.15,0,0,1-1.3-14.3l14.08-16.9a2.92,2.92,0,0,0-.41-4.16L195.69,84.22l-28.83,18.93a3.76,3.76,0,0,1-.91.42l-36.56,10.57a9.46,9.46,0,0,1-11.7-6.38h0A9.46,9.46,0,0,1,124,96l30.91-9.44a3.67,3.67,0,0,0,.73-.32L180,71.53h0L221.81,27.1,237.59,42l12.22,12.21a3.86,3.86,0,0,0,5.44,0l13.9-13.82a8,8,0,0,1,11.28,0Z"/></g></g></svg>