<svg xmlns="http://www.w3.org/2000/svg" xmlns:xlink="http://www.w3.org/1999/xlink" viewBox="0 0 156.6 189.03"><defs><style>.cls-1{fill:url(#radial-gradient);}.cls-2{fill:none;stroke:#fff31b;stroke-miterlimit:10;stroke-width:2px;}.cls-3{font-size:26.53px;fill:#fff31b;font-family:OpenSans-BoldItalic, Open Sans;font-weight:700;font-style:italic;}</style><radialGradient id="radial-gradient" cx="77.57" cy="188.52" r="178.67" gradientTransform="translate(-0.43 266.08) rotate(-90) scale(1 0.41)" gradientUnits="userSpaceOnUse"><stop offset="0" stop-color="#3bc0c7"/><stop offset="1" stop-color="#3bc0c7" stop-opacity="0"/></radialGradient></defs><title>icon_1_winner</title><g id="Layer_2" data-name="Layer 2"><g id="Layer_1-2" data-name="Layer 1"><ellipse class="cls-1" cx="78.3" cy="94.52" rx="78.3" ry="94.52"/><path class="cls-2" d="M116.64,77.51H40c0-8.66,17.16-15.68,38.33-15.68S116.64,68.85,116.64,77.51Z"/><path class="cls-2" d="M116.64,77.51c0,37-17.16,66.91-38.34,66.91S40,114.47,40,77.51Z"/><ellipse class="cls-2" cx="77.34" cy="56.4" rx="3.05" ry="5.44"/><path class="cls-2" d="M116.64,77.62c10-20.89,36.11-5.2,17.82,16-15.89,18.39-11.67,32.91-3.54,41.31"/><path class="cls-2" d="M40,77.62c-10-20.89-36.11-5.2-17.82,16C38,112,33.82,126.5,25.69,134.9"/><path class="cls-2" d="M83.14,144.42c0,16.07,2.61,32,6.65,35.52,2.28,2,12,8-11.49,8"/><path class="cls-2" d="M73.46,144.42c0,16.07-2.61,32-6.65,35.52-2.28,2-12,8,11.49,8"/><text class="cls-3" transform="translate(62.9 113.88)">#1</text></g></g></svg>