<svg xmlns="http://www.w3.org/2000/svg" xmlns:xlink="http://www.w3.org/1999/xlink" viewBox="0 0 100 75.29"><defs><style>.cls-1{fill:url(#linear-gradient);}.cls-2{fill:url(#linear-gradient-2);}.cls-3{fill:url(#linear-gradient-3);}.cls-4{fill:url(#linear-gradient-4);}.cls-5{fill:url(#linear-gradient-5);}.cls-6{fill:url(#linear-gradient-6);}.cls-7{fill:url(#linear-gradient-7);}.cls-8{fill:url(#linear-gradient-8);}.cls-9{fill:none;stroke:#fff31b;stroke-miterlimit:10;stroke-width:2px;}</style><linearGradient id="linear-gradient" x1="60.37" y1="19.37" x2="131.35" y2="19.37" gradientUnits="userSpaceOnUse"><stop offset="0" stop-color="#3bc0c7" stop-opacity="0"/><stop offset="1" stop-color="#3bc0c7"/></linearGradient><linearGradient id="linear-gradient-2" x1="60.37" y1="49.14" x2="131.35" y2="49.14" xlink:href="#linear-gradient"/><linearGradient id="linear-gradient-3" x1="143.15" y1="19.37" x2="214.13" y2="19.37" gradientTransform="matrix(-1, 0, 0, 1, 182.77, 0)" xlink:href="#linear-gradient"/><linearGradient id="linear-gradient-4" x1="143.15" y1="49.14" x2="214.13" y2="49.14" gradientTransform="matrix(-1, 0, 0, 1, 182.77, 0)" xlink:href="#linear-gradient"/><linearGradient id="linear-gradient-5" x1="58.09" y1="10.15" x2="76.39" y2="10.15" xlink:href="#linear-gradient"/><linearGradient id="linear-gradient-6" x1="40.85" y1="48.61" x2="93.62" y2="48.61" xlink:href="#linear-gradient"/><linearGradient id="linear-gradient-7" x1="22.55" y1="10.15" x2="40.85" y2="10.15" gradientUnits="userSpaceOnUse"><stop offset="0" stop-color="#3bc0c7"/><stop offset="1" stop-color="#3bc0c7" stop-opacity="0"/></linearGradient><linearGradient id="linear-gradient-8" x1="5.32" y1="48.61" x2="58.09" y2="48.61" xlink:href="#linear-gradient-7"/></defs><title>icon_10000_vars</title><g id="Layer_2" data-name="Layer 2"><g id="Layer_1-2" data-name="Layer 1"><circle class="cls-1" cx="79.58" cy="19.37" r="7.08"/><path class="cls-2" d="M100,42.69a3.33,3.33,0,0,1-5.29,2.68l-6.9-5-.06,8.05L88.9,65.47v.22a3.33,3.33,0,0,1-6.65.23L81.44,53.8H77.71L76.9,65.92a3.33,3.33,0,0,1-6.66-.23c0-.07,0-.15,0-.22L71.4,48.38l-.06-8.05-6.91,5A3.33,3.33,0,0,1,60.51,40l13.84-10.1a3.35,3.35,0,0,1,1.85-.63H83a3.29,3.29,0,0,1,1.84.63L98.63,40A3.32,3.32,0,0,1,100,42.69Z"/><circle class="cls-3" cx="20.42" cy="19.37" r="7.08"/><path class="cls-4" d="M0,42.69a3.33,3.33,0,0,0,5.29,2.68l6.9-5,.06,8.05L11.1,65.47v.22a3.33,3.33,0,0,0,6.65.23l.81-12.12h3.73l.81,12.12a3.33,3.33,0,0,0,6.66-.23c0-.07,0-.15,0-.22L28.6,48.38l.06-8.05,6.91,5A3.33,3.33,0,0,0,39.49,40L25.65,29.89a3.35,3.35,0,0,0-1.85-.63H17.05a3.29,3.29,0,0,0-1.84.63L1.37,40A3.32,3.32,0,0,0,0,42.69Z"/><circle class="cls-5" cx="67.24" cy="10.15" r="9.15"/><path class="cls-6" d="M93.62,40.27a4.29,4.29,0,0,1-6.82,3.47l-8.93-6.51L77.8,47.62,79.28,69.7c0,.1,0,.19,0,.28a4.3,4.3,0,0,1-8.59.3l-1-15.66H64.83l-1,15.66a4.31,4.31,0,0,1-8.6-.3c0-.09,0-.18,0-.28l1.48-22.08L56.6,37.23l-8.92,6.51a4.3,4.3,0,0,1-5.07-7l17.88-13a4.33,4.33,0,0,1,2.39-.82H71.6a4.32,4.32,0,0,1,2.38.82L91.86,36.79A4.3,4.3,0,0,1,93.62,40.27Z"/><circle class="cls-7" cx="31.7" cy="10.15" r="9.15"/><path class="cls-8" d="M58.09,40.27a4.3,4.3,0,0,1-6.83,3.47l-8.92-6.51-.08,10.39L43.74,69.7c0,.1,0,.19,0,.28a4.31,4.31,0,0,1-8.6.3l-1-15.66H29.29L28.24,70.28a4.3,4.3,0,0,1-8.59-.3c0-.09,0-.18,0-.28l1.48-22.08-.07-10.39-8.93,6.51a4.3,4.3,0,0,1-5.06-7L25,23.74a4.32,4.32,0,0,1,2.38-.82h8.72a4.33,4.33,0,0,1,2.39.82L56.33,36.79A4.3,4.3,0,0,1,58.09,40.27Z"/><circle class="cls-9" cx="50" cy="10.15" r="9.15"/><path class="cls-9" d="M76.39,40.27a4.25,4.25,0,0,1-.83,2.52,4.31,4.31,0,0,1-6,1l-8.92-6.51-.08,10.39L62,69.7a2.72,2.72,0,0,1,0,.28,4.3,4.3,0,0,1-8.59.3L52.41,54.62H47.59L46.54,70.28A4.3,4.3,0,0,1,38,70a2.72,2.72,0,0,1,0-.28l1.48-22.08-.08-10.39-8.92,6.51a4.3,4.3,0,1,1-5.06-7l17.87-13a4.33,4.33,0,0,1,2.39-.82h8.72a4.32,4.32,0,0,1,2.38.82L74.62,36.79A4.31,4.31,0,0,1,76.39,40.27Z"/></g></g></svg>