<svg xmlns="http://www.w3.org/2000/svg" viewBox="0 0 119 43.45"><defs><style>.cls-1{fill:#fff31b;}.cls-2{fill:#3bc0c7;}</style></defs><title>icon_2-12</title><g id="Layer_2" data-name="Layer 2"><g id="Layer_1-2" data-name="Layer 1"><path class="cls-1" d="M28.18,43.45H0l1.26-6.24,14-12.42a50.71,50.71,0,0,0,7.28-7.46,9.18,9.18,0,0,0,2-5.26,4.44,4.44,0,0,0-1.2-3.35A4.4,4.4,0,0,0,20.1,7.56a9.17,9.17,0,0,0-4,1,26.21,26.21,0,0,0-5,3.47L6.83,6.06a27.27,27.27,0,0,1,7.38-4.67A19.64,19.64,0,0,1,21.53,0q5.56,0,8.82,2.87a9.63,9.63,0,0,1,3.25,7.59,14.6,14.6,0,0,1-1.2,5.89,21.75,21.75,0,0,1-3.59,5.51A67.34,67.34,0,0,1,21,29l-7.88,6.51v.29H29.77Z"/><path class="cls-2" d="M35.68,31l1.56-7.33H52.59L51,31Z"/><path class="cls-1" d="M74,43.45H65l5.27-24.29q1-4.45,2.23-8.41-.27.24-1.8,1.38t-7.69,5l-3.9-6.3L75.7.62H83Z"/><path class="cls-1" d="M113.58,43.45H85.4l1.26-6.24,14-12.42a51.44,51.44,0,0,0,7.29-7.46,9.23,9.23,0,0,0,2-5.26,4.44,4.44,0,0,0-1.2-3.35,4.4,4.4,0,0,0-3.22-1.16,9.17,9.17,0,0,0-4,1,26.21,26.21,0,0,0-5,3.47L92.23,6.06a27.27,27.27,0,0,1,7.38-4.67A19.64,19.64,0,0,1,106.93,0q5.56,0,8.82,2.87A9.63,9.63,0,0,1,119,10.46a14.6,14.6,0,0,1-1.2,5.89,21.75,21.75,0,0,1-3.59,5.51,67.34,67.34,0,0,1-7.8,7.17l-7.88,6.51v.29h16.64Z"/></g></g></svg>