<svg xmlns="http://www.w3.org/2000/svg" xmlns:xlink="http://www.w3.org/1999/xlink" viewBox="0 0 102 79.45"><defs><style>.cls-1{fill:none;stroke:#fff31b;stroke-linecap:round;stroke-linejoin:round;stroke-width:2px;}.cls-2{fill:url(#linear-gradient);}.cls-3,.cls-4{fill:#fff31b;}.cls-4{font-size:26.53px;font-family:OpenSans-BoldItalic, Open Sans;font-weight:700;font-style:italic;}</style><linearGradient id="linear-gradient" x1="17.38" y1="37.53" x2="74.51" y2="17.53" gradientTransform="matrix(0.99, 0.15, -0.15, 0.99, 8.02, -7.04)" gradientUnits="userSpaceOnUse"><stop offset="0" stop-color="#3bc0c7" stop-opacity="0"/><stop offset="1" stop-color="#3bc0c7"/></linearGradient></defs><title>icon_one_hour</title><g id="Layer_2" data-name="Layer 2"><g id="Layer_1-2" data-name="Layer 1"><path class="cls-1" d="M92.8,78.45a50,50,0,1,0-83.6,0"/><line class="cls-1" x1="51" y1="12.81" x2="51" y2="1.02"/><line class="cls-1" x1="23.99" y1="23.99" x2="15.66" y2="15.66"/><line class="cls-1" x1="12.81" y1="51" x2="1.02" y2="51"/><line class="cls-1" x1="11.33" y1="34.31" x2="4.93" y2="31.61"/><line class="cls-1" x1="34.58" y1="11.21" x2="31.93" y2="4.8"/><line class="cls-1" x1="78.01" y1="23.99" x2="86.34" y2="15.66"/><line class="cls-1" x1="67.42" y1="11.21" x2="70.07" y2="4.8"/><path class="cls-2" d="M27.34,50.18A23.68,23.68,0,0,1,71.57,42.3L90.57,31A45.78,45.78,0,0,0,5.49,47"/><path class="cls-1" d="M70.74,66.81a23.6,23.6,0,1,0-39.45,0"/><polygon class="cls-3" points="90.59 31 69.79 38.91 73.26 44.98 90.59 31"/><text class="cls-4" transform="translate(36.12 62.06)">60</text><line class="cls-1" x1="89.19" y1="51" x2="100.98" y2="51"/><line class="cls-1" x1="90.67" y1="34.31" x2="97.07" y2="31.61"/><line class="cls-1" x1="91.32" y1="66.07" x2="97.82" y2="68.5"/><line class="cls-1" x1="10.68" y1="66.07" x2="4.18" y2="68.5"/></g></g></svg>