<svg xmlns="http://www.w3.org/2000/svg" viewBox="0 0 102 102"><defs><style>.cls-1{fill:none;stroke:#fff31b;stroke-linecap:round;stroke-linejoin:round;stroke-width:2px;}</style></defs><title>icon_4_loc</title><g id="Layer_2" data-name="Layer 2"><g id="Layer_1-2" data-name="Layer 1"><circle class="cls-1" cx="51" cy="51" r="50"/><line class="cls-1" x1="51" y1="101" x2="51" y2="1"/><line class="cls-1" x1="101" y1="51" x2="1.03" y2="51"/><path class="cls-1" d="M92.54,78.84c-8.61-9.34-18.92-6.71-27.36,4.31C57.43,93.27,51,87.53,51,87.53"/><polyline class="cls-1" points="85.15 73.48 73.68 57.65 54.23 88.9"/><polyline class="cls-1" points="78.89 64.84 76.37 68.96 73.3 66.9 69.69 72.81 66.43 69.29"/><polyline class="cls-1" points="70.53 51 70.53 24.5 86.18 24.5 86.18 51"/><polyline class="cls-1" points="72.66 24.5 72.66 13.88 51 13.88"/><line class="cls-1" x1="55.93" y1="19.19" x2="55.93" y2="23.75"/><line class="cls-1" x1="61.6" y1="19.19" x2="61.6" y2="23.75"/><line class="cls-1" x1="67.26" y1="19.19" x2="67.26" y2="23.75"/><line class="cls-1" x1="55.93" y1="29.81" x2="55.93" y2="34.38"/><line class="cls-1" x1="61.6" y1="29.81" x2="61.6" y2="34.38"/><line class="cls-1" x1="67.26" y1="29.81" x2="67.26" y2="34.38"/><line class="cls-1" x1="75.48" y1="29.4" x2="75.48" y2="32.09"/><line class="cls-1" x1="81.23" y1="29.4" x2="81.23" y2="32.09"/><line class="cls-1" x1="75.48" y1="40.02" x2="75.48" y2="42.72"/><line class="cls-1" x1="81.23" y1="40.02" x2="81.23" y2="42.72"/><line class="cls-1" x1="55.93" y1="40.44" x2="55.93" y2="45"/><line class="cls-1" x1="61.6" y1="40.44" x2="61.6" y2="45"/><line class="cls-1" x1="67.26" y1="40.44" x2="67.26" y2="45"/><path class="cls-1" d="M51,92.67C45.68,91.5,12.13,82.45,12.13,82.45"/><line class="cls-1" x1="27.45" y1="86.56" x2="27.45" y2="79.51"/><path class="cls-1" d="M25.18,61.49c-8-3.84-12.5,3.51-9.83,9.84s12.18,11.35,20.5,5.84c5.49-3.65,6.58-14.59.5-19.09C29.41,53,24.35,57.65,25.18,61.49Z"/><path class="cls-1" d="M51,41.92c-10.54-7.17-16-6-25-1.48-8.55,4.29-19.06,6.12-23.26-2.52"/><path class="cls-1" d="M51,30.4c-10.54-7.16-16-6-25-1.48-7,3.52-15.34,5.39-20.43,1.18"/><path class="cls-1" d="M51,18.89c-10.54-7.17-16-6-25-1.48-4.81,2.41-10.24,4.05-14.82,3.48"/></g></g></svg>