<svg xmlns="http://www.w3.org/2000/svg" viewBox="0 0 223.09 71.72"><defs><style>.cls-1{fill:#fff31b;}.cls-2{fill:#3bc0c7;}</style></defs><title>icon_1000m2</title><g id="Layer_2" data-name="Layer 2"><g id="Layer_1-2" data-name="Layer 1"><path class="cls-1" d="M19.26,71H7.65L14.5,39.41q1.34-5.79,2.89-10.92c-.23.2-1,.8-2.34,1.79s-4.66,3.14-10,6.47L0,28.57,21.54,15.32H31Z"/><path class="cls-1" d="M78.24,32.45q0,17.88-6.41,28.58t-18,10.69q-7.55,0-11.44-4.64t-3.9-13.89a61.61,61.61,0,0,1,3.2-20.44q3.2-9.13,8.67-13.72a19.22,19.22,0,0,1,12.68-4.58Q78.24,14.45,78.24,32.45ZM62,24q-3,0-5.69,4T51.87,39.41a59.55,59.55,0,0,0-1.83,14A16.12,16.12,0,0,0,51.09,60a3.75,3.75,0,0,0,3.71,2.22q3.08,0,5.73-4a36.94,36.94,0,0,0,4.41-11.45,63.21,63.21,0,0,0,1.77-14.69c0-2.82-.39-4.87-1.16-6.17A3.84,3.84,0,0,0,62,24Z"/><path class="cls-1" d="M121.17,32.45q0,17.88-6.41,28.58t-18,10.69q-7.53,0-11.43-4.64t-3.9-13.89a61.62,61.62,0,0,1,3.19-20.44Q87.84,23.62,93.31,19A19.19,19.19,0,0,1,106,14.45Q121.18,14.45,121.17,32.45ZM105,24q-3,0-5.69,4T94.8,39.41a59.55,59.55,0,0,0-1.83,14A16.12,16.12,0,0,0,94,60a3.75,3.75,0,0,0,3.71,2.22q3.08,0,5.72-4a36.67,36.67,0,0,0,4.42-11.45,63.21,63.21,0,0,0,1.77-14.69c0-2.82-.39-4.87-1.16-6.17A3.85,3.85,0,0,0,105,24Z"/><path class="cls-1" d="M164.09,32.45q0,17.88-6.41,28.58t-18,10.69q-7.53,0-11.44-4.64t-3.9-13.89a61.61,61.61,0,0,1,3.2-20.44q3.19-9.13,8.68-13.72a19.19,19.19,0,0,1,12.67-4.58Q164.09,14.45,164.09,32.45ZM147.88,24c-2,0-3.92,1.32-5.69,4s-3.25,6.47-4.47,11.49a59.51,59.51,0,0,0-1.82,14,16.14,16.14,0,0,0,1,6.6,3.76,3.76,0,0,0,3.71,2.22q3.09,0,5.73-4a36.94,36.94,0,0,0,4.41-11.45,63.21,63.21,0,0,0,1.77-14.69c0-2.82-.38-4.87-1.16-6.17A3.83,3.83,0,0,0,147.88,24Z"/><path class="cls-2" d="M187.82,46.51h-5.7v-27l-8.51,17.58h-4.28L160.88,19.5v27h-5.39V12.31h6.95l9.31,19.13,9-19.13h7.07Z"/><path class="cls-2" d="M223.09,29.18H199.82V24.4c2-1.26,3.91-2.46,5.62-3.58s3.08-2.1,4.12-2.94a29.34,29.34,0,0,0,5.14-4.73A6.91,6.91,0,0,0,215.83,9a3.76,3.76,0,0,0-1.63-3.27,7.45,7.45,0,0,0-4.4-1.17,15.81,15.81,0,0,0-5.36.94,20.34,20.34,0,0,0-4.1,1.88h-.4V1.87A32.13,32.13,0,0,1,204.8.54,26.88,26.88,0,0,1,210.14,0q5.51,0,8.37,2.4a7.77,7.77,0,0,1,2.87,6.23A9.69,9.69,0,0,1,219.89,14a22,22,0,0,1-5,5.06q-1.68,1.32-4,2.88t-4.4,2.82h16.66Z"/></g></g></svg>