<svg xmlns="http://www.w3.org/2000/svg" xmlns:xlink="http://www.w3.org/1999/xlink" viewBox="0 0 262.88 221.15"><defs><style>.cls-1{fill:url(#linear-gradient);}.cls-2{fill:#5adbdb;}.cls-3{fill:url(#radial-gradient);}.cls-4{fill:none;stroke:#fff31b;stroke-miterlimit:10;stroke-width:2px;}</style><linearGradient id="linear-gradient" x1="191.25" y1="51.23" x2="97" y2="13.48" gradientUnits="userSpaceOnUse"><stop offset="0.08" stop-color="#ebf2e0" stop-opacity="0"/><stop offset="0.16" stop-color="#ebf0da" stop-opacity="0.03"/><stop offset="0.29" stop-color="#eaecca" stop-opacity="0.13"/><stop offset="0.46" stop-color="#eae5b0" stop-opacity="0.29"/><stop offset="0.64" stop-color="#e8db8c" stop-opacity="0.5"/><stop offset="0.85" stop-color="#e7cf5f" stop-opacity="0.77"/><stop offset="1" stop-color="#e6c539"/></linearGradient><radialGradient id="radial-gradient" cx="187.38" cy="68.53" r="150.45" gradientTransform="matrix(-1, 0, 0, 0.87, 319.82, 9.05)" gradientUnits="userSpaceOnUse"><stop offset="0" stop-color="#3bc0c7"/><stop offset="0.01" stop-color="#3bc0c7" stop-opacity="0.99"/><stop offset="0.28" stop-color="#3bc0c7" stop-opacity="0.64"/><stop offset="0.52" stop-color="#3bc0c7" stop-opacity="0.36"/><stop offset="0.73" stop-color="#3bc0c7" stop-opacity="0.17"/><stop offset="0.9" stop-color="#3bc0c7" stop-opacity="0.04"/><stop offset="1" stop-color="#3bc0c7" stop-opacity="0"/></radialGradient></defs><title>icon_decor</title><g id="Layer_2" data-name="Layer 2"><g id="Layer_1-2" data-name="Layer 1"><path class="cls-1" d="M131.44,25.65c-10.28,0-38.39,1.17-57.31,10.84a63.25,63.25,0,0,1,114.62,0c-18.92-9.67-47-10.84-57.31-10.84"/><path class="cls-2" d="M97.14,68.19C103.41,77,116.42,83,131.44,83s28-6,34.3-14.77c-20.1-5.41-30.6-4.66-34.66-4.66S106.59,64,97.14,68.19Z"/><path class="cls-3" d="M131.44,63.53c-86.32,0-131.44,98-131.44,98s98.58,59.6,131.44,59.6,131.44-59.6,131.44-59.6S217.76,63.53,131.44,63.53Z"/><ellipse class="cls-4" cx="131.44" cy="80.22" rx="48.56" ry="17"/><ellipse class="cls-4" cx="131.44" cy="80.22" rx="106.22" ry="34.92"/><path class="cls-4" d="M184.35,34.55c-11.29-5.36-30.77-8.9-52.91-8.9s-41.62,3.54-52.91,8.9"/><path class="cls-4" d="M78.53,34.55c-27.45,11.6-44.5,28.32-50,37"/><path class="cls-4" d="M184.35,34.55c27.45,11.6,44.5,28.32,50,37"/></g></g></svg>