<svg xmlns="http://www.w3.org/2000/svg" viewBox="0 0 118.25 84.73"><defs><style>.cls-1,.cls-2{fill:none;stroke-miterlimit:10;stroke-width:2px;}.cls-1{stroke:#fff31b;}.cls-2{stroke:#3bc0c7;}</style></defs><title>icon_holiday</title><g id="Layer_2" data-name="Layer 2"><g id="Layer_1-2" data-name="Layer 1"><ellipse class="cls-1" cx="57.6" cy="43.93" rx="27.76" ry="7.8" transform="translate(-11 67.2) rotate(-56.07)"/><polyline class="cls-1" points="73.76 21.59 116 83.22 43.04 67.33"/><path class="cls-2" d="M62.68,32.66c1.5-6.84-11.17-4.14-9.84-11.07s5.84-9.93-2.33-15.27"/><line class="cls-2" x1="31.18" y1="5.32" x2="35.01" y2="11.66"/><path class="cls-1" d="M55.81,43.36C54,40.45,43,38,35.81,43.36c-5.38,4-11.18,4.13-13.7-3.13C18.55,30,4.3,28.86,1,43.36"/><path class="cls-1" d="M69.43,25.74C67.68,20.86,62.8,3.36,78.43,1"/><path class="cls-2" d="M49.3,60.24c-3.62-.25-25.5-3-32.87,17.62"/><line class="cls-2" x1="8.18" y1="51.66" x2="15.01" y2="51.66"/></g></g></svg>