<svg xmlns="http://www.w3.org/2000/svg" viewBox="0 0 102.47 195.48"><defs><style>.cls-1,.cls-2{fill:none;stroke-miterlimit:10;stroke-width:2px;}.cls-1{stroke:#fff31b;}.cls-2{stroke:#3bc0c7;}</style></defs><title>icon_mic</title><g id="Layer_2" data-name="Layer 2"><g id="Layer_1-2" data-name="Layer 1"><path class="cls-1" d="M73.45,96.25l-3.92,83.42c0,8.18-8.19,14.81-18.29,14.81s-18.3-6.63-18.3-14.81L29,96.25"/><path class="cls-1" d="M101.47,51.24A50.24,50.24,0,0,1,4.94,70.77,50,50,0,0,1,1,51.24a51,51,0,0,1,.46-6.81,50.24,50.24,0,0,1,99.55,0A51,51,0,0,1,101.47,51.24Z"/><path class="cls-2" d="M101.47,51.24a50,50,0,0,1-3.94,19.53c-9,6.15-26.32,10.31-46.3,10.31S13.88,76.92,4.94,70.77A50,50,0,0,1,1,51.24a51,51,0,0,1,.46-6.81,25.84,25.84,0,0,0,7.27,5.19c9.59,4.89,25.06,8.07,42.5,8.07s32.92-3.18,42.51-8.07A25.84,25.84,0,0,0,101,44.43,51,51,0,0,1,101.47,51.24Z"/></g></g></svg>