<svg xmlns="http://www.w3.org/2000/svg" viewBox="0 0 831.42 600.29"><defs><style>.cls-1{fill:none;stroke:#fff31b;stroke-linecap:round;stroke-linejoin:round;stroke-width:2px;}</style></defs><title>pattern</title><g id="Layer_2" data-name="Layer 2"><g id="Layer_1-2" data-name="Layer 1"><path class="cls-1" d="M442.47,24.67c27.5-27.5,73.82,2.34,47,45.25-16.25,26-47,34.5-47,34.5s-30.75-8.5-47-34.5C368.65,27,415-2.83,442.47,24.67Z"/><circle class="cls-1" cx="67.35" cy="59.24" r="55"/><path class="cls-1" d="M13.77,46.78C3.12,58.2-1.57,70.86,2.4,81.56,9.74,101.36,43.93,106.94,78.77,94s57.13-39.43,49.79-59.23C125,25.21,115.17,19,102,16.53"/><rect class="cls-1" x="581.34" y="29.03" width="76.22" height="76.22"/><line class="cls-1" x1="581.34" y1="29.03" x2="558.22" y2="10.96"/><polyline class="cls-1" points="657.56 29.03 634.44 10.96 558.22 10.96 558.22 87.17"/><line class="cls-1" x1="581.34" y1="105.25" x2="558.22" y2="87.17"/><circle class="cls-1" cx="252.22" cy="66.37" r="47.99"/><path class="cls-1" d="M237.43,20.71a24,24,0,1,0-31.69,33.67"/><path class="cls-1" d="M267,20.71A24,24,0,1,1,298.7,54.38"/><path class="cls-1" d="M262,73.56a9.75,9.75,0,0,0-19.49,0c0,5.38,4.36,0,9.74,0S262,78.94,262,73.56Z"/><path class="cls-1" d="M252.22,73.56c0,11.87,14,19.29,25.63,15"/><path class="cls-1" d="M252.22,73.56c0,11.87-14,19.29-25.63,15"/><circle class="cls-1" cx="274.62" cy="54.32" r="7.27"/><circle class="cls-1" cx="229.83" cy="54.32" r="7.27"/><path class="cls-1" d="M246.11,85.57a6.77,6.77,0,0,0,12.23,0"/><path class="cls-1" d="M810.12,43.94a29.74,29.74,0,1,1,3.09-13.22"/><path class="cls-1" d="M793.52,30.72a8.22,8.22,0,1,1-8.22-8.22A8.2,8.2,0,0,1,793.52,30.72Z"/><path class="cls-1" d="M802.33,75.06a40.14,40.14,0,1,1-77.54-14.61,40.19,40.19,0,0,0,38.67-7.78,29.68,29.68,0,0,0,34.44,4A39.83,39.83,0,0,1,802.33,75.06Z"/><path class="cls-1" d="M776.34,80.29c0,5.94-4.83,10.26-10.75,10.76-15.76,1.33-32.73-8.67-32.73-13.88,0-2.55,23-7.35,32.17-7.62h.56A10.75,10.75,0,0,1,776.34,80.29Z"/><path class="cls-1" d="M802.33,37.29c0,3.63,3,6.27,6.57,6.57,9.63.81,20-5.29,20-8.48,0-1.55-14.08-4.49-19.65-4.65h-.34A6.57,6.57,0,0,0,802.33,37.29Z"/><path class="cls-1" d="M65.48,184c27.5-27.5,73.82,2.34,47,45.25-16.25,26-47,34.5-47,34.5s-30.75-8.5-47-34.5C-8.34,186.33,38,156.49,65.48,184Z"/><circle class="cls-1" cx="255.85" cy="226.46" r="55"/><path class="cls-1" d="M202.27,214c-10.65,11.42-15.34,24.08-11.38,34.78,7.34,19.79,41.53,25.37,76.37,12.46S324.4,221.8,317.06,202c-3.55-9.58-13.4-15.83-26.56-18.27"/><rect class="cls-1" x="739.4" y="188.35" width="76.22" height="76.22"/><line class="cls-1" x1="739.4" y1="188.35" x2="716.28" y2="170.28"/><polyline class="cls-1" points="815.61 188.35 792.49 170.28 716.28 170.28 716.28 246.49"/><line class="cls-1" x1="739.4" y1="264.57" x2="716.28" y2="246.49"/><circle class="cls-1" cx="446.74" cy="222.7" r="47.99"/><path class="cls-1" d="M431.94,177a24,24,0,1,0-31.68,33.68"/><path class="cls-1" d="M461.53,177a24,24,0,1,1,31.68,33.68"/><path class="cls-1" d="M456.48,229.89a9.75,9.75,0,0,0-19.49,0c0,5.38,4.36,0,9.75,0S456.48,235.27,456.48,229.89Z"/><path class="cls-1" d="M446.74,229.89c0,11.87,14,19.29,25.63,15"/><path class="cls-1" d="M446.74,229.89c0,11.87-14,19.29-25.63,15"/><circle class="cls-1" cx="469.13" cy="210.66" r="7.27"/><circle class="cls-1" cx="424.34" cy="210.66" r="7.27"/><path class="cls-1" d="M440.62,241.9a6.77,6.77,0,0,0,12.23,0"/><path class="cls-1" d="M640.07,203.26A29.91,29.91,0,0,1,627.85,216a29.72,29.72,0,1,1,15.31-26"/><path class="cls-1" d="M623.46,190a8.22,8.22,0,1,1-8.22-8.22A8.21,8.21,0,0,1,623.46,190Z"/><path class="cls-1" d="M632.28,234.38a40.15,40.15,0,1,1-77.55-14.61A40.19,40.19,0,0,0,593.4,212a29.7,29.7,0,0,0,34.45,4A40,40,0,0,1,632.28,234.38Z"/><path class="cls-1" d="M606.29,239.61c0,5.94-4.84,10.26-10.76,10.76-15.76,1.33-32.72-8.67-32.72-13.88,0-2.55,23.05-7.35,32.17-7.62h.55A10.75,10.75,0,0,1,606.29,239.61Z"/><path class="cls-1" d="M632.28,196.61c0,3.63,3,6.27,6.57,6.57,9.62.81,20-5.29,20-8.48,0-1.55-14.07-4.49-19.64-4.65h-.34A6.57,6.57,0,0,0,632.28,196.61Z"/><path class="cls-1" d="M255.85,353.27c27.5-27.5,73.82,2.34,47,45.25-16.25,26-47,34.5-47,34.5s-30.75-8.5-47-34.5C182,355.61,228.35,325.77,255.85,353.27Z"/><circle class="cls-1" cx="444.34" cy="387.84" r="55"/><path class="cls-1" d="M390.76,375.38c-10.65,11.42-15.34,24.08-11.37,34.78,7.34,19.8,41.53,25.37,76.37,12.46s57.13-39.44,49.79-59.23c-3.55-9.58-13.39-15.83-26.55-18.27"/><rect class="cls-1" x="581.34" y="357.63" width="76.22" height="76.22"/><line class="cls-1" x1="581.34" y1="357.63" x2="558.22" y2="339.55"/><polyline class="cls-1" points="657.56 357.63 634.44 339.55 558.22 339.55 558.22 415.77"/><line class="cls-1" x1="581.34" y1="433.84" x2="558.22" y2="415.77"/><circle class="cls-1" cx="765.94" cy="394.97" r="47.99"/><path class="cls-1" d="M751.15,349.31A24,24,0,1,0,719.47,383"/><path class="cls-1" d="M780.74,349.31A24,24,0,1,1,812.42,383"/><path class="cls-1" d="M775.69,402.16a9.75,9.75,0,1,0-19.49,0c0,5.38,4.36,0,9.74,0S775.69,407.54,775.69,402.16Z"/><path class="cls-1" d="M765.94,402.16c0,11.87,14,19.28,25.63,15"/><path class="cls-1" d="M765.94,402.16c0,11.87-14,19.28-25.63,15"/><circle class="cls-1" cx="788.34" cy="382.92" r="7.27"/><circle class="cls-1" cx="743.55" cy="382.92" r="7.27"/><path class="cls-1" d="M759.83,414.17a6.77,6.77,0,0,0,12.23,0"/><path class="cls-1" d="M102,372.53a29.93,29.93,0,0,1-12.22,12.79,29.72,29.72,0,1,1,15.31-26"/><path class="cls-1" d="M85.4,359.32a8.22,8.22,0,0,1-4.23,7.19,8.22,8.22,0,1,1,4.23-7.19Z"/><path class="cls-1" d="M94.22,403.66a40.15,40.15,0,1,1-77.55-14.61,40.19,40.19,0,0,0,38.67-7.78,29.74,29.74,0,0,0,34.45,4.05A39.93,39.93,0,0,1,94.22,403.66Z"/><path class="cls-1" d="M68.23,408.88c0,5.95-4.84,10.26-10.76,10.76C41.71,421,24.75,411,24.75,405.76c0-2.54,23-7.35,32.16-7.62h.56A10.76,10.76,0,0,1,68.23,408.88Z"/><path class="cls-1" d="M94.22,365.89c0,3.63,3,6.26,6.57,6.57,9.62.81,20-5.29,20-8.48,0-1.55-14.07-4.49-19.64-4.65h-.34A6.57,6.57,0,0,0,94.22,365.89Z"/><path class="cls-1" d="M605.41,512.59c27.5-27.5,73.83,2.34,47,45.25-16.25,26-47,34.5-47,34.5s-30.75-8.5-47-34.5C531.59,514.93,577.91,485.09,605.41,512.59Z"/><circle class="cls-1" cx="767.82" cy="531.98" r="55"/><path class="cls-1" d="M714.23,519.52c-10.64,11.42-15.33,24.08-11.37,34.78,7.34,19.8,41.53,25.37,76.37,12.46s57.14-39.43,49.8-59.23c-3.55-9.58-13.4-15.83-26.56-18.27"/><rect class="cls-1" x="229.3" y="509.05" width="76.22" height="76.22"/><line class="cls-1" x1="229.3" y1="509.05" x2="206.18" y2="490.98"/><polyline class="cls-1" points="305.52 509.05 282.4 490.98 206.18 490.98 206.18 567.2"/><line class="cls-1" x1="229.3" y1="585.27" x2="206.18" y2="567.2"/><circle class="cls-1" cx="65.48" cy="551.3" r="47.99"/><path class="cls-1" d="M50.68,505.64A24,24,0,1,0,19,539.31"/><path class="cls-1" d="M80.28,505.64A24,24,0,1,1,112,539.31"/><path class="cls-1" d="M75.22,558.49a9.74,9.74,0,1,0-19.48,0c0,5.38,4.36,0,9.74,0S75.22,563.87,75.22,558.49Z"/><path class="cls-1" d="M65.48,558.49c0,11.87,14,19.29,25.63,15"/><path class="cls-1" d="M65.48,558.49c0,11.87-14,19.29-25.63,15"/><circle class="cls-1" cx="87.87" cy="539.25" r="7.27"/><circle class="cls-1" cx="43.09" cy="539.25" r="7.27"/><path class="cls-1" d="M59.36,570.5a6.77,6.77,0,0,0,12.23,0"/><path class="cls-1" d="M471,524a29.74,29.74,0,1,1,3.09-13.22"/><path class="cls-1" d="M454.41,510.75a8.22,8.22,0,1,1-8.22-8.22A8.23,8.23,0,0,1,454.41,510.75Z"/><path class="cls-1" d="M463.22,555.08a40.14,40.14,0,1,1-77.54-14.6,40.25,40.25,0,0,0,38.66-7.78,29.72,29.72,0,0,0,34.45,4A39.83,39.83,0,0,1,463.22,555.08Z"/><path class="cls-1" d="M437.23,560.31c0,5.94-4.83,10.26-10.76,10.76-15.75,1.33-32.72-8.66-32.72-13.88,0-2.54,23.05-7.35,32.17-7.62h.55A10.75,10.75,0,0,1,437.23,560.31Z"/><path class="cls-1" d="M463.22,517.31c0,3.63,2.95,6.27,6.57,6.57,9.63.82,20-5.29,20-8.47,0-1.56-14.08-4.49-19.65-4.66h-.34A6.57,6.57,0,0,0,463.22,517.31Z"/></g></g></svg>