<svg xmlns="http://www.w3.org/2000/svg" xmlns:xlink="http://www.w3.org/1999/xlink" viewBox="0 0 111.38 78"><defs><style>.cls-1{fill:url(#linear-gradient);}.cls-2{fill:#fff31b;}.cls-3{fill:#ffb000;}.cls-4{fill:url(#linear-gradient-2);}.cls-5{fill:url(#linear-gradient-3);}</style><linearGradient id="linear-gradient" x1="-111.67" y1="171.14" x2="-117.47" y2="219.33" gradientTransform="matrix(0.16, 2.61, -1.3, 0.31, 298.18, 277.27)" gradientUnits="userSpaceOnUse"><stop offset="0" stop-color="#e6c539"/><stop offset="0.14" stop-color="#e7cf5f" stop-opacity="0.77"/><stop offset="0.32" stop-color="#e8db8c" stop-opacity="0.5"/><stop offset="0.48" stop-color="#eae5b0" stop-opacity="0.29"/><stop offset="0.62" stop-color="#eaecca" stop-opacity="0.13"/><stop offset="0.74" stop-color="#ebf0da" stop-opacity="0.03"/><stop offset="0.82" stop-color="#ebf2e0" stop-opacity="0"/></linearGradient><linearGradient id="linear-gradient-2" x1="60.66" y1="43.92" x2="59.47" y2="44.07" gradientUnits="userSpaceOnUse"><stop offset="0" stop-color="#ebf2b6"/><stop offset="1" stop-color="#ebf2e0" stop-opacity="0"/></linearGradient><linearGradient id="linear-gradient-3" x1="60.66" y1="34.94" x2="59.48" y2="35.09" xlink:href="#linear-gradient-2"/></defs><title>tir</title><g id="Layer_2" data-name="Layer 2"><g id="Layer_1-2" data-name="Layer 1"><rect class="cls-1" y="35.61" width="54.2" height="7.78"/><ellipse class="cls-2" cx="91.43" cy="39" rx="19.95" ry="39"/><ellipse class="cls-3" cx="89.62" cy="39" rx="2.72" ry="5.44"/><path class="cls-3" d="M91.43,1c10.45,0,18.95,17.05,18.95,38s-8.5,38-18.95,38-19-17-19-38S81,1,91.43,1m0-1c-11,0-20,17.46-20,39s8.93,39,20,39,19.95-17.46,19.95-39S102.45,0,91.43,0Z"/><path class="cls-3" d="M90.52,17.78c5.61,0,10.34,9.72,10.34,21.22S96.13,60.22,90.52,60.22,80.19,50.5,80.19,39s4.73-21.22,10.33-21.22m0-1c-6.26,0-11.33,10-11.33,22.22s5.07,22.22,11.33,22.22S101.86,51.27,101.86,39,96.78,16.78,90.52,16.78Z"/><path class="cls-3" d="M89.62,34.56c.68,0,1.72,1.77,1.72,4.44s-1,4.44-1.72,4.44S87.89,41.67,87.89,39s1-4.44,1.73-4.44m0-1c-1.51,0-2.73,2.43-2.73,5.44s1.22,5.44,2.73,5.44S92.34,42,92.34,39s-1.22-5.44-2.72-5.44Z"/><path class="cls-4" d="M59.68,44l.92,0-.42,0Z"/><path class="cls-5" d="M60.6,35l-.92,0h.5Z"/><path class="cls-3" d="M63.51,39.5c0,2-2.46,3.67-5.63,3.89h-.06l-.65,0h-6c-1.74,0-3.17-1.76-3.17-3.92a4.46,4.46,0,0,1,.93-2.77,2.91,2.91,0,0,1,2.24-1.15h6l.65,0h.06C61.05,35.83,63.51,37.48,63.51,39.5Z"/></g></g></svg>